<svg width="506" height="493" viewBox="0 0 506 493" fill="none" xmlns="http://www.w3.org/2000/svg">
<g clip-path="url(#clip0_1_2)">
<path d="M180.351 33.2593C181.417 33.0129 182.483 32.7666 184.211 32.3323C189.327 30.8021 193.782 29.4598 198.437 28.128C198.638 28.1384 199 27.9663 199.336 28.0139C200.095 27.9259 200.519 27.7903 201.296 27.6634C202.087 27.5177 202.527 27.3635 203.218 27.332C203.96 27.2465 204.45 27.0382 205.289 26.8429C206.073 26.7036 206.508 26.5514 207.312 26.486C210.588 25.8122 213.495 25.0516 216.402 24.2909C217.98 24.1489 219.557 24.0069 221.909 23.8595C224.788 23.4799 226.892 23.1057 228.997 22.7315C229.425 22.7231 229.854 22.7148 230.989 22.7236C233.786 22.4428 235.876 22.1446 237.966 21.8465C241.988 21.7134 246.01 21.5804 250.894 21.4888C255.537 21.4542 259.318 21.3781 263.099 21.3021C264.788 21.4535 266.477 21.605 268.96 21.8713C272.533 22.0989 275.312 22.2117 278.322 22.358C278.552 22.3915 278.983 22.2131 278.983 22.2131C279.322 22.3058 279.662 22.3986 280.517 22.66C282.711 22.9626 284.389 23.0965 286.367 23.3078C287.076 23.3644 287.485 23.3437 287.894 23.3229C288.419 23.51 288.944 23.697 289.96 24.0675C291.009 24.2121 291.567 24.1731 292.125 24.1341C292.817 24.32 293.51 24.5059 294.832 24.8761C296.33 25.1651 297.196 25.2697 298.365 25.5326C299.117 25.7135 299.568 25.7361 300.334 25.8878C301.099 26.0055 301.549 25.9941 301.999 25.9826C302.371 26.0853 302.743 26.1879 303.707 26.4879C310.532 28.1553 316.764 29.6254 322.997 31.0954C323.32 31.2094 323.642 31.3235 324.471 31.6321C325.645 31.9668 326.314 32.1069 326.983 32.2469C327.117 32.3646 327.251 32.4824 327.874 32.8627C329.575 33.4307 330.787 33.7362 331.998 34.0416C332.309 34.1667 332.621 34.2918 333.403 34.6697C339.244 36.9944 344.614 39.0665 350.092 41.2183C350.2 41.2981 350.453 41.2098 350.653 41.4434C351.241 41.7639 351.629 41.8509 352.017 41.9378C352.017 41.9378 352.306 42.1626 352.639 42.3981C353.314 42.7071 353.657 42.7806 354 42.854C354 42.854 354.322 43.108 354.728 43.4201C358.105 45.0881 361.078 46.444 364.05 47.7999C364.76 48.2185 365.471 48.6371 366.611 49.3243C367.362 49.7095 367.683 49.8263 368.127 50.0518C368.249 50.1605 368.575 50.134 368.748 50.3716C369.282 50.7411 369.641 50.873 370.102 51.1057C370.203 51.2065 370.482 51.1434 370.671 51.4077C371.254 51.8343 371.647 51.9967 372.122 52.2198C372.203 52.2806 372.385 52.1902 372.555 52.4674C373.12 52.8982 373.515 53.0517 373.899 53.157C373.889 53.1087 373.818 53.1775 373.983 53.4668C376.437 55.098 378.727 56.4399 381.175 57.918C381.334 58.0541 381.749 58.1034 381.942 58.3728C383.424 59.4246 384.712 60.207 386.093 61.0993C386.186 61.2091 386.472 61.1892 386.662 61.4787C388.587 62.8119 390.323 63.8556 392.058 64.8993C392.058 64.8993 392.089 64.9748 392.172 65.1968C392.712 65.6633 393.168 65.9078 393.792 66.4457C394.921 67.2957 395.881 67.8523 396.935 68.592C397.221 68.9991 397.465 69.1078 397.906 69.4043C400.931 71.9103 403.811 74.113 406.742 76.2998C406.792 76.2838 406.731 76.1972 406.811 76.4857C407.217 76.9971 407.542 77.2199 407.944 77.6218C408.201 78.0149 408.431 78.1196 408.837 78.4022C409.637 79.1405 410.311 79.5916 411.111 80.3321C412.683 81.7925 414.128 82.9635 415.723 84.3917C416.221 84.8249 416.568 85.001 416.91 85.1198C416.906 85.0625 416.798 85.1014 416.841 85.3708C417.261 85.9886 417.639 86.3368 418.139 86.8491C418.261 87.0131 418.65 87.1387 418.795 87.4346C419.887 88.5696 420.834 89.4088 421.868 90.1485C421.955 90.049 421.754 90.2194 421.843 90.534C423.236 92.0332 424.541 93.2178 425.907 94.5828C426.123 94.9905 426.339 95.1113 426.744 95.3901C427.208 95.8395 427.542 96.0243 427.87 96.148C427.865 96.0868 427.754 96.1389 427.795 96.4291C428.236 97.1104 428.637 97.5016 429.137 98.1388C429.522 98.5792 429.808 98.7736 430.179 99.2533C430.806 100.115 431.348 100.692 432.051 101.547C434.038 103.916 435.864 106.006 437.814 108.376C438.252 108.913 438.565 109.169 438.909 109.608C438.939 109.791 439.217 110.036 439.246 110.263C439.422 110.79 439.661 110.962 440.034 111.241C440.222 111.786 440.461 111.982 440.889 112.347C441.284 112.879 441.584 113.129 441.934 113.566C441.984 113.754 442.296 113.985 442.315 114.315C444.827 117.93 447.32 121.215 449.808 124.651C449.803 124.803 450.038 124.998 450.074 125.332C451.028 126.894 451.946 128.123 452.897 129.544C452.93 129.736 453.224 129.992 453.243 130.3C453.786 131.221 454.31 131.833 454.827 132.607C454.82 132.767 455.047 132.996 455.079 133.35C457.095 137.028 459.078 140.351 461.037 143.768C461.012 143.862 461.196 143.923 461.224 144.276C462.757 147.292 464.261 149.954 465.75 152.895C466.091 153.802 466.449 154.43 466.875 155.375C467.245 155.994 467.545 156.296 467.764 156.674C467.682 156.749 467.767 156.955 467.768 157.284C468.123 158.132 468.477 158.65 468.85 159.123C468.869 159.076 468.771 159.094 468.774 159.452C469.48 161.249 470.183 162.689 470.908 164.085C470.929 164.041 470.835 164.066 470.843 164.427C471.52 166.272 472.19 167.754 472.86 169.237C472.86 169.237 472.883 169.644 472.983 170.195C479.233 188.31 483.695 206.246 486.037 224.756C486.986 232.254 486.434 238.212 478.354 241.124C477.65 241.377 477.156 242.214 476.405 242.799C476.246 242.819 476.027 243.058 475.671 243.089C470.324 245.977 465.333 248.834 460.258 251.661C460.175 251.631 460.022 251.718 459.639 251.755C455.134 253.783 451.013 255.775 446.533 257.793C444.938 258.459 443.702 259.099 442.336 259.709C442.206 259.679 442.001 259.852 441.684 259.882C441.042 260.172 440.717 260.431 440.291 260.631C440.19 260.571 439.981 260.678 439.591 260.702C436.686 261.754 434.172 262.782 431.481 263.816C431.303 263.823 431.009 264.023 430.684 263.99C429.601 264.32 428.845 264.684 428.062 265.026C428.035 265.004 428.018 265.071 427.63 265.048C415.32 268.623 403.452 272.413 391.46 275.759C381.727 278.475 371.846 280.658 361.692 283.053C360.921 283.149 360.488 283.27 359.657 283.323C351.181 284.882 343.104 286.508 334.625 288.103C333.176 288.268 332.13 288.463 330.688 288.532C323.192 289.413 316.091 290.42 308.66 291.193C307.827 289.421 307.161 287.914 306.85 286.338C303.185 267.778 294.454 252.269 279.243 240.247C275.682 237.575 272.496 234.819 268.882 232.846C248.242 221.577 226.663 218.629 203.749 226.09C202.949 226.307 202.438 226.547 201.537 226.79C195.934 229.434 190.722 232.075 185.357 234.744C185.204 234.771 185.011 235.013 184.666 235.051C166.746 246.571 155.128 262.363 150.581 282.92C149.642 287.167 148.261 289.053 143.645 288.197C142.87 288.084 142.417 288.086 141.665 287.852C124.188 283.717 106.876 280.323 89.8675 275.793C69.0671 270.253 49.4157 261.861 30.9186 250.569C23.8247 246.238 22.884 241.375 23.481 233.851C26.4611 196.294 37.5727 161.48 57.8236 129.765C64.8643 118.739 73.2148 108.549 80.9671 97.9772C81.2384 97.7844 81.5096 97.5916 82.1827 97.0481C94.9689 85.9288 107.327 75.1296 119.754 64.4103C123.469 61.206 127.376 58.225 131.195 55.1417C134.378 53.6876 137.56 52.2336 141.276 50.3971C143.506 48.9976 145.201 47.9805 146.896 46.9633C147.414 46.7182 147.931 46.4732 148.975 46.2165C149.668 46.1353 149.835 46.0658 150.34 45.9841C151.572 45.3933 152.466 44.8148 153.36 44.2363C153.36 44.2363 153.711 44.1884 154.206 44.1107C155.677 43.4256 156.651 42.8182 157.705 42.2646C157.785 42.3184 157.954 42.2289 158.294 42.1679C158.962 41.8032 159.29 41.4995 159.719 41.2619C159.818 41.3279 160.056 41.3093 160.432 41.2884C162.717 40.3223 164.627 39.3771 166.536 38.4319C166.87 38.3565 167.204 38.2812 168.063 38.1095C169.089 37.7022 169.589 37.3912 170.084 37.0801C170.077 37.0799 170.098 37.1097 170.45 37.0938C172.301 36.4373 173.799 35.7968 175.488 35.1574C175.678 35.1585 176.006 34.963 176.304 34.9502C176.911 34.695 177.219 34.4525 177.66 34.2626C177.794 34.3152 178.037 34.161 178.362 34.1669C179.242 33.8683 179.796 33.5638 180.351 33.2593ZM329.157 66.4135C324.378 68.491 321.079 72.1734 320.324 77.1554C319.511 82.5153 318.814 88.2441 319.822 93.4734C328.207 136.963 352.411 169.668 389.542 192.995C399.487 199.243 410.633 202.914 422.755 202.047C435.232 201.155 444.37 193.171 445.711 181.025C446.359 175.154 446.649 168.78 445.08 163.203C433.148 120.796 408.456 88.5762 367.739 70.1656C355.855 64.7922 343.091 61.825 329.157 66.4135ZM438.234 212.136C434.539 209.817 430.782 209.081 427.413 212.509C424.814 215.153 424.595 218.364 426.351 221.645C428.893 226.394 434.406 228.146 438.527 225.538C442.648 222.93 442.753 217.969 438.234 212.136Z" fill="#F1264B"/>
<path d="M461.892 353.684C461.599 354.074 461.307 354.463 460.659 355.422C459.688 357.25 459.073 358.51 458.458 359.77C457.939 360.569 457.42 361.369 456.597 362.643C454.818 365.726 453.341 368.334 451.865 370.943C440.726 386.882 428.853 402.2 414.303 415.247C412.82 416.577 411.318 417.885 409.357 419.034C404.261 420.581 399.635 422.296 394.623 424.016C391.652 424.987 389.131 426.216 386.469 426.874C376.84 429.257 367.23 431.801 357.491 433.632C341.255 436.683 325.013 440.163 308.609 441.728C292.435 443.272 276.053 442.986 259.766 442.871C250.691 442.807 241.497 442.151 232.582 440.523C219.297 438.096 206.093 435.006 193.07 431.413C175.187 426.479 158.316 418.906 142.26 409.611C124.565 399.367 107.999 387.575 93.5339 373.022C86.2963 365.74 79.1731 358.344 71.8679 350.719C70.8254 349.625 69.9131 348.812 68.8828 347.733C68.1837 346.976 67.6027 346.485 66.9839 345.649C65.6309 343.536 64.3157 341.767 62.8948 339.779C62.5926 339.285 62.3329 339.097 61.9749 338.662C60.9618 336.882 59.9838 335.439 58.9528 333.658C54.9349 327.88 50.97 322.439 46.9685 316.642C43.0666 309.467 38.9691 302.766 35.4157 295.788C32.9326 290.912 31.1939 285.656 29.4786 280.691C31.4821 281.533 33.1678 282.18 34.7707 282.991C41.2992 286.293 47.6623 289.96 54.3391 292.924C83.3097 305.781 113.856 313.068 145.066 317.724C149.529 318.39 151.42 320.075 152.793 324.281C163.094 355.836 193.382 377.685 226.64 377.895C262.269 378.119 292.427 357.466 303.56 325.087C304.422 322.581 305.509 321.447 308.291 321.026C327.54 318.114 346.864 315.524 365.951 311.753C400.508 304.926 434.135 294.956 465.669 278.86C472.584 275.331 479.241 271.297 486.259 267.361C486.386 269.127 486.492 270.591 486.598 272.054C486.386 273.109 486.174 274.165 485.872 275.844C485.814 276.994 485.845 277.518 485.876 278.043C483.954 287.443 482.032 296.844 479.914 306.947C479.265 309.334 478.811 311.018 478.358 312.703C476.205 318.805 474.052 324.906 471.613 331.583C470.941 333.446 470.556 334.733 470.171 336.02C468.255 340.019 466.34 344.019 464.14 348.597C463.512 350.105 463.168 351.033 462.576 352.146C462.219 352.717 462.108 353.105 461.955 353.508C461.914 353.524 461.892 353.684 461.892 353.684Z" fill="#FEFEFE"/>
<path d="M22.9164 260.021C23.3346 257.005 23.7528 253.989 24.7524 251.222C26.8736 252.339 28.4134 253.208 29.9814 254.052C30.0096 254.027 29.9379 254.048 30.0991 254.347C32.9321 256.309 35.5239 258.119 38.2882 259.61C59.0345 270.797 81.0604 278.653 103.964 283.929C118.648 287.312 133.516 289.896 148.303 292.826C151.379 293.435 153.145 292.369 153.117 289.001C153.106 287.673 153.239 286.343 153.46 284.708C156.147 277.948 158.679 271.494 161.416 264.885C161.775 264.25 161.93 263.77 162.327 263.072C162.738 262.247 162.907 261.639 163.036 261.03C162.998 261.029 163.068 261.061 163.384 260.942C165.549 258.23 167.397 255.638 169.477 252.913C170.141 252.226 170.574 251.671 171.259 250.959C172.007 250.196 172.501 249.591 172.997 248.993C172.999 248.999 172.987 248.997 173.274 248.846C175.06 247.142 176.559 245.589 178.026 244.025C177.995 244.013 178.035 244.066 178.377 244.008C183.16 240.657 187.601 237.364 192.063 234.087C192.083 234.103 192.128 234.127 192.515 234.148C194.615 233.57 196.367 233.062 198.035 232.356C211.004 226.865 224.327 224.803 238.443 226.689C249.399 228.153 259.146 232.516 268.933 237.095C268.948 237.082 268.934 237.049 269.102 237.342C273.169 240.488 277.07 243.343 281.059 246.379C281.314 246.785 281.532 246.939 281.943 247.251C282.387 247.673 282.686 247.863 282.985 248.024C282.983 247.995 282.938 248.033 283.005 248.358C284.03 249.478 284.989 250.272 285.976 251.055C286.003 251.042 285.944 251.032 286.017 251.285C286.38 251.709 286.671 251.881 286.961 252.022C286.962 251.991 286.929 252.043 286.913 252.288C286.897 252.532 287.042 252.999 287.18 253.296C288.865 255.417 290.41 257.241 291.968 259.03C291.98 258.994 291.923 259.043 291.982 259.394C295.432 268.005 298.802 276.274 302.255 284.508C302.526 285.154 303.383 285.553 303.952 286.399C303.916 288.158 303.895 289.584 303.978 291.259C304.381 291.694 304.679 291.882 304.959 292.046C304.941 292.023 304.901 292.068 304.757 292.41C305.203 293.54 305.751 294.961 306.391 295.004C309.036 295.183 311.758 295.24 314.363 294.81C331.866 291.925 349.534 289.713 366.787 285.72C387.777 280.863 408.434 274.546 429.166 268.619C431.209 268.035 432.772 265.768 434.586 264.271C434.614 264.26 434.67 264.224 434.765 264.245C434.86 264.266 434.956 264.096 435.106 264.434C436.616 264.552 437.976 264.332 439.713 264.12C446.936 261.277 453.906 258.685 460.586 255.488C465.432 253.169 469.894 250.048 474.626 247.276C474.725 247.267 474.891 247.159 475.275 247.134C478.129 245.426 480.601 243.742 483.036 242.032C483.001 242.007 483.052 242.078 483.401 242.06C484.848 241.667 485.944 241.292 487.041 240.916C487.041 240.916 487.008 240.979 487.026 241.366C487.163 242.54 487.283 243.327 487.403 244.113C487.304 249.442 487.205 254.77 486.807 260.718C472.622 272.262 456.662 279.442 440.467 285.907C416.676 295.405 392.115 302.663 366.944 307.458C347.575 311.148 328.064 314.178 308.528 316.852C303.645 317.52 301.025 318.777 299.714 323.588C296.473 335.48 289.643 345.558 280.644 353.496C262.907 369.141 242.083 376.826 218.135 373.125C185.94 368.148 165.079 349.785 154.974 318.871C154.358 316.987 152.036 314.734 150.156 314.344C140.27 312.294 130.227 311.01 120.32 309.05C94.1444 303.869 68.775 296.134 44.9326 283.96C38.4514 280.651 32.3133 276.67 26.0178 272.997C25.2305 270.3 24.4433 267.603 23.6926 264.148C23.4582 262.267 23.1873 261.144 22.9164 260.021ZM179.474 281.106C172.295 304.4 179.376 327.361 199.09 341.111C216.283 353.102 241.526 353.858 260.944 338.834C284.804 320.372 287.68 281.46 263.96 259.814C236.19 234.473 192.978 244.941 179.474 281.106Z" fill="#474259"/>
<path d="M67.0217 345.994C67.6027 346.485 68.1837 346.976 68.8904 348.104C70.0102 349.494 71.0042 350.247 71.9982 351C79.1731 358.344 86.2963 365.74 93.534 373.022C107.999 387.575 124.565 399.367 142.26 409.611C158.316 418.906 175.187 426.479 193.07 431.413C206.093 435.006 219.297 438.096 232.582 440.523C241.497 442.151 250.691 442.807 259.767 442.871C276.053 442.986 292.435 443.272 308.609 441.728C325.014 440.163 341.255 436.683 357.491 433.632C367.23 431.801 376.84 429.257 386.469 426.874C389.131 426.216 391.652 424.987 394.622 424.481C395.214 426.79 395.422 428.637 395.629 430.484C395.629 430.484 395.509 430.53 395.112 430.43C391.63 431.15 388.079 431.398 387.951 435.845C368.973 449.434 348.104 459.195 325.903 466.135C274.717 482.134 223.905 480.68 173.12 461.949C170.998 459.923 169.435 458.162 167.494 457.082C164.969 455.678 162.004 455.067 159.474 453.669C153.281 450.248 147.229 446.574 141.124 442.994C139.471 442.025 137.729 440.069 136.206 440.232C131.652 440.719 129.416 438.023 126.99 435.096C126.409 434.395 125.181 433.862 124.258 433.874C120.227 433.927 121.524 431.824 122.616 429.634C120.14 428.089 117.876 425.933 115.212 425.168C109.251 423.456 104.931 419.773 100.888 415.385C97.8944 412.136 94.5532 409.21 91.4358 406.072C87.2702 401.879 82.8986 397.847 79.1302 393.317C76.1373 389.72 74.7636 384.127 71.1433 381.861C66.4648 378.933 65.1097 375.355 64.7013 370.989C61.8307 369.588 59.283 368.344 56.4861 366.942C55.9901 366.252 55.7435 365.72 55.8412 364.985C57.5326 359.771 53.3376 352.971 47.0679 350.053C46.8816 349.64 46.8655 349.453 47.218 349.169C49.7468 346.009 46.7026 347.484 45.5941 346.892C45.1532 346.179 44.9507 345.637 45.0697 344.951C47.2872 341.074 45.5804 338.028 41.0434 337.122C40.8446 336.667 40.828 336.462 41.1889 336.168C41.141 333.979 40.896 331.822 40.2522 329.791C38.9511 325.686 37.5452 321.603 35.911 317.623C35.584 316.826 34.0469 316.526 33.0678 315.997C32.9296 315.588 32.7913 315.178 32.9827 314.259C33.8761 310.781 34.4398 307.814 35.0035 304.847C34.608 304.998 34.2125 305.149 33.8169 305.3C32.4078 302.913 30.9987 300.527 29.5896 298.141C30.0818 297.704 30.574 297.268 31.0662 296.831C32.3231 297.784 33.8552 298.53 34.768 299.742C35.939 301.297 36.3835 303.397 37.544 304.963C40.5808 309.061 43.8367 312.998 47.0052 316.999C50.97 322.439 54.9349 327.88 58.6917 333.866C59.6591 335.94 60.8346 337.469 62.0101 338.998C62.333 339.097 62.5926 339.285 62.8998 340.15C64.3477 342.491 65.6847 344.242 67.0217 345.994Z" fill="#ECE9FC"/>
<path d="M25.7212 273.025C32.3133 276.67 38.4514 280.651 44.9326 283.96C68.7749 296.134 94.1443 303.869 120.32 309.05C130.227 311.01 140.27 312.294 150.156 314.344C152.035 314.734 154.358 316.987 154.973 318.871C165.079 349.785 185.94 368.148 218.135 373.124C242.083 376.826 262.907 369.141 280.644 353.496C289.643 345.558 296.473 335.48 299.713 323.588C301.025 318.777 303.645 317.52 308.528 316.852C328.064 314.178 347.575 311.148 366.944 307.458C392.114 302.663 416.676 295.404 440.467 285.907C456.662 279.442 472.622 272.262 486.815 261.188C488.392 263.325 489.95 265.509 490.826 267.938C491.384 269.483 490.931 271.394 490.931 273.733C489.136 272.932 488.181 272.506 486.912 272.067C486.492 270.591 486.386 269.127 486.259 267.361C479.241 271.297 472.584 275.331 465.669 278.86C434.135 294.956 400.508 304.926 365.951 311.753C346.864 315.524 327.54 318.114 308.291 321.026C305.509 321.447 304.422 322.581 303.56 325.087C292.427 357.466 262.269 378.119 226.64 377.895C193.382 377.685 163.094 355.836 152.793 324.281C151.42 320.075 149.529 318.39 145.066 317.724C113.856 313.068 83.3097 305.781 54.3391 292.924C47.6623 289.96 41.2992 286.293 34.7707 282.991C33.1678 282.18 31.4821 281.533 29.5425 280.369C27.6637 278.886 26.0767 277.845 24.4897 276.804C24.8014 275.553 25.113 274.303 25.7212 273.025Z" fill="#121115"/>
<path d="M80.649 97.8306C73.2148 108.549 64.8643 118.739 57.8236 129.765C37.5727 161.48 26.4611 196.294 23.481 233.851C22.8841 241.375 23.8247 246.238 30.9186 250.569C49.4157 261.861 69.0671 270.253 89.8676 275.793C106.876 280.323 124.188 283.717 141.391 288.124C134.458 287.447 127.453 286.483 120.551 285.027C108.293 282.441 95.7878 280.49 83.9581 276.553C70.0811 271.936 56.8085 265.499 43.2863 259.821C38.8167 257.944 34.3862 255.975 29.9379 254.048C29.9379 254.048 30.0096 254.027 29.9747 253.703C28.2957 251.924 26.6515 250.469 25.0073 249.015C23.6845 247.179 21.2054 245.322 21.2389 243.511C21.3846 235.635 22.2999 227.775 22.8568 219.903C23.1211 216.168 22.9312 212.379 23.4722 208.691C23.8434 206.16 25.1136 203.76 25.9943 201.306C26.2047 200.719 26.8077 200.023 26.648 199.593C24.8652 194.801 28.1757 191.121 29.3077 186.98C29.8114 185.137 30.4321 183.324 31.0427 181.512C34.3479 171.705 36.7158 161.407 41.4353 152.334C43.4014 148.554 43.9387 144.189 46.6605 140.694C49.3387 137.254 50.9526 133.007 53.4155 129.373C56.335 125.066 59.7856 121.12 62.7698 116.853C64.6974 114.097 65.9755 110.875 67.9837 108.19C69.1006 106.697 71.2074 105.982 72.6936 104.712C73.4948 104.028 74.1963 102.987 74.4775 101.978C75.3263 98.9313 76.3639 96.3821 80.649 97.8306Z" fill="#2B070A"/>
<path d="M40.8114 336.257C40.828 336.462 40.8446 336.667 41.0868 337.486C42.4577 340.431 43.603 342.763 44.7483 345.095C44.9507 345.637 45.1532 346.179 45.5923 347.148C46.169 348.139 46.5093 348.702 46.8495 349.266C46.8655 349.453 46.8816 349.64 47.1308 350.421C50.0749 355.738 52.7859 360.463 55.4968 365.187C55.7435 365.72 55.9901 366.252 56.5622 367.287C68.2704 386.369 82.1875 402.815 98.3682 417.395C112.66 430.272 128.617 440.732 145.284 450.194C145.121 451.163 144.958 452.132 144.568 454.445C136.567 449.682 128.863 445.589 121.685 440.719C107.124 430.841 93.4028 419.817 81.4779 406.845C68.1482 392.345 56.1844 376.731 47.1154 359.149C42.3837 349.975 38.2244 340.504 33.9076 331.121C33.3082 329.818 33.2903 328.247 33.0016 326.4C33 326 32.9947 326.007 32.9947 326.007C33.7651 326.004 34.5355 326.001 35.9469 326.23C37.9957 329.727 39.4035 332.992 40.8114 336.257Z" fill="#121115"/>
<path d="M145.591 450.247C128.617 440.732 112.66 430.272 98.3682 417.395C82.1875 402.815 68.2704 386.369 56.8115 367.445C59.283 368.344 61.8307 369.588 64.7012 370.989C65.1097 375.355 66.4648 378.933 71.1433 381.861C74.7636 384.127 76.1373 389.72 79.1302 393.317C82.8986 397.847 87.2702 401.879 91.4358 406.072C94.5532 409.21 97.8944 412.136 100.888 415.385C104.931 419.773 109.251 423.456 115.212 425.168C117.876 425.934 120.139 428.089 122.616 429.634C121.524 431.824 120.227 433.927 124.258 433.874C125.181 433.862 126.409 434.395 126.99 435.096C129.416 438.023 131.652 440.719 136.206 440.232C137.729 440.07 139.471 442.026 141.124 442.994C147.229 446.574 153.281 450.248 159.474 453.669C162.004 455.067 164.969 455.678 167.494 457.082C169.435 458.162 170.998 459.923 172.863 461.698C166.335 459.324 159.674 456.634 152.443 453.63C150.404 452.648 148.936 451.978 147.467 451.308C146.944 450.972 146.421 450.636 145.591 450.247Z" fill="#E9E7F4"/>
<path d="M476.564 242.78C477.156 242.214 477.65 241.377 478.354 241.123C486.434 238.212 486.986 232.254 486.037 224.756C483.695 206.246 479.233 188.31 473.103 170.36C473.953 170.445 475.208 170.717 475.542 171.424C477.657 175.894 482.179 181.438 480.934 184.768C479.061 189.776 485.105 188.563 484.297 192.171C483.608 195.245 485.288 198.849 485.726 202.78C485.69 204.229 485.848 205.117 486.006 206.005C486.673 213.044 487.341 220.083 488.01 227.936C488.335 230.149 488.658 231.548 488.981 232.946C488.339 235.043 487.698 237.139 486.643 239.608C485.17 240.68 484.111 241.379 483.052 242.078C483.052 242.078 483.001 242.007 482.624 242.009C480.352 242.268 478.458 242.524 476.564 242.78ZM482.474 192.599C482.474 192.599 482.402 192.476 482.474 192.599V192.599Z" fill="#290A0C"/>
<path d="M130.872 54.9967C127.376 58.225 123.469 61.206 119.754 64.4103C107.327 75.1296 94.9689 85.9288 82.2729 96.8104C83.3221 94.616 84.4379 92.1121 86.0971 90.0441C89.0639 86.3462 92.1301 82.6691 95.5713 79.4251C100.256 75.0083 105.277 70.9383 110.27 66.8618C112.093 65.3731 114.249 64.2914 116.677 63.155C117.19 63.3355 117.279 63.3851 117.368 63.4347C117.245 63.2899 117.122 63.1451 117 63.0002C118.632 59.7462 127.126 54.6375 130.872 54.9967Z" fill="#2B070A"/>
<path d="M24.4765 277.148C26.0767 277.845 27.6637 278.886 29.1867 280.249C31.1939 285.657 32.9326 290.912 35.4157 295.788C38.9691 302.766 43.0666 309.467 46.9685 316.642C43.8366 312.998 40.5808 309.061 37.544 304.963C36.3835 303.397 35.939 301.297 34.768 299.742C33.8552 298.53 32.3231 297.784 31.0662 296.831C30.574 297.268 30.0818 297.705 29.5896 298.141C30.9987 300.527 32.4078 302.914 33.8169 305.3C34.2124 305.149 34.608 304.998 35.0035 304.847C34.4398 307.814 33.876 310.782 33.0113 313.934C31.1047 308.223 29.4991 302.325 27.7672 295.726C27.4043 294.347 27.1677 293.67 26.931 292.993C26.1084 287.826 25.2858 282.659 24.4765 277.148Z" fill="#E9E7F4"/>
<path d="M437.691 108.095C435.864 106.006 434.038 103.916 432.06 101.206C431.304 100.046 430.699 99.507 430.095 98.968C429.808 98.7736 429.522 98.5792 429.099 97.8399C428.56 96.9096 428.157 96.5243 427.754 96.1389C427.754 96.1389 427.865 96.0867 427.771 95.8599C427.322 95.4639 426.968 95.2947 426.613 95.1255C426.339 95.1113 426.123 94.9904 425.951 94.146C425.938 92.3712 425.941 91.2135 425.986 90.0101C426.028 89.9644 426.108 89.8704 426.108 89.8704C426.421 89.9927 426.681 90.1863 427.069 90.9159C427.538 91.5469 427.825 91.7133 428.112 91.8798C430.323 94.3822 432.535 96.8847 434.991 99.9164C435.442 100.721 435.715 100.89 436.055 100.952C440.369 106.722 444.683 112.492 448.649 118.581C446.299 117.262 444.298 115.623 442.296 113.985C442.296 113.985 441.984 113.754 441.87 113.263C441.435 112.537 441.115 112.301 440.794 112.065C440.461 111.982 440.222 111.786 439.964 111.036C439.708 110.334 439.496 110.147 439.217 110.036C439.217 110.036 438.939 109.791 438.838 109.289C438.388 108.556 438.039 108.326 437.691 108.095Z" fill="#1D090A"/>
<path d="M415.572 84.1345C414.128 82.9635 412.683 81.7925 411.068 79.9855C410.169 78.9379 409.44 78.5264 408.711 78.1149C408.431 78.1196 408.201 78.0149 407.884 77.3132C407.408 76.616 407.07 76.4066 406.731 76.1972C406.731 76.1972 406.792 76.2838 406.807 75.9392C404.544 73.4014 402.267 71.2082 399.994 69.0089C399.998 69.0028 400.01 68.9897 400.01 68.9897C404.312 66.6475 405.74 71.2719 408.015 72.8325C412.688 76.0391 416.562 80.4103 421.003 84.843C421.53 85.5618 421.819 85.7397 422.107 85.9177C422.686 86.4112 423.264 86.9047 424.048 87.8965C424.537 88.5553 424.822 88.716 425.107 88.8766C425.413 88.9992 425.665 89.1932 425.985 89.6645C426.108 89.8704 426.028 89.9645 425.569 89.9924C423.992 90.0867 422.873 90.1531 421.754 90.2194C421.754 90.2194 421.955 90.049 421.932 89.7402C420.823 88.6671 419.737 87.9029 418.65 87.1387C418.65 87.1387 418.261 87.0131 418.102 86.5779C417.561 85.7956 417.18 85.4485 416.798 85.1014C416.798 85.1014 416.906 85.0625 416.789 84.8358C416.306 84.4509 415.939 84.2927 415.572 84.1345Z" fill="#1D090A"/>
<path d="M395.929 430.349C395.422 428.637 395.214 426.79 395.008 424.477C399.635 422.296 404.261 420.581 409.043 419.185C404.875 423.075 400.552 426.645 395.929 430.349Z" fill="#E5E3EC"/>
<path d="M466.806 155.058C466.449 154.43 466.091 153.802 465.811 152.467C465.241 149.191 464.594 146.622 463.956 144.044C463.966 144.034 463.984 144.016 463.984 144.016C468.901 150.282 473.171 156.822 472.736 165.458C471.932 165.133 471.383 164.599 470.835 164.066C470.835 164.066 470.929 164.041 470.945 163.712C470.231 161.954 469.501 160.524 468.771 159.094C468.771 159.094 468.869 159.076 468.883 158.783C468.519 157.978 468.143 157.466 467.767 156.955C467.767 156.955 467.682 156.749 467.72 156.339C467.441 155.638 467.123 155.348 466.806 155.058Z" fill="#1D090A"/>
<path d="M41.1889 336.168C39.4035 332.992 37.9957 329.727 36.3321 326.223C35.0358 322.906 33.9953 319.829 33.0113 316.375C34.0469 316.526 35.5839 316.826 35.911 317.623C37.5451 321.603 38.9511 325.686 40.2522 329.791C40.896 331.822 41.141 333.979 41.1889 336.168Z" fill="#E9E7F4"/>
<path d="M263.094 21.016C259.318 21.3781 255.537 21.4542 251.321 21.3325C250.926 20.2991 250.964 19.4634 251.001 18.3139C251 18 250.995 18.0067 250.995 18.0067C255.346 18.0067 259.697 18.0067 264.143 18.0067C263.741 19.0449 263.414 19.8875 263.094 21.016Z" fill="#1D090A"/>
<path d="M206.942 26.3992C206.508 26.5514 206.073 26.7036 205.156 26.6542C204.105 26.7047 203.536 26.957 202.966 27.2092C202.527 27.3635 202.087 27.5177 201.118 27.4924C200.058 27.5306 199.529 27.7485 199 27.9663C199 27.9663 198.638 28.1385 198.122 28.0679C197.071 27.7031 196.536 27.4088 195.905 26.8714C195.535 26.424 195.26 26.2198 194.99 26.0101C194.995 26.0046 194.975 26.0251 194.975 26.0251C199.778 24.6807 204.581 23.3363 209.384 21.9918C209.342 22.5165 209.299 23.0412 208.849 23.9312C207.941 24.9975 207.442 25.6983 206.942 26.3992Z" fill="#1D090A"/>
<path d="M487.781 244.104C487.283 243.327 487.163 242.54 487.059 241.354C488.448 239.835 489.821 238.715 491.306 237.503C491.306 245.293 491.306 253.58 491.306 261.866C490.869 261.883 490.432 261.9 489.995 261.917C489.995 259.61 489.996 257.302 489.995 254.995C489.993 252.671 490.2 250.319 489.906 248.033C489.731 246.667 488.768 245.403 487.781 244.104Z" fill="#121115"/>
<path d="M322.822 30.794C316.764 29.6253 310.532 28.1553 303.997 26.4641C304.913 26.1376 306.132 26.0322 308.035 26.0007C310.142 26.3833 311.565 26.692 312.989 27.0006C314.372 26.997 315.755 26.9933 317.569 26.9922C318 26.9948 318.046 27.0298 318.046 27.0298C319.58 28.184 321.113 29.3383 322.822 30.794Z" fill="#290A0C"/>
<path d="M450.038 124.998C450.038 124.998 449.803 124.803 449.864 124.238C449.948 123.12 449.971 122.569 449.994 122.017C455.32 123.946 457.293 128.298 457.807 133.578C456.609 133.5 455.828 133.248 455.047 132.996C455.047 132.996 454.82 132.767 454.857 132.259C454.337 131.164 453.78 130.578 453.224 129.992C453.224 129.992 452.93 129.736 452.92 129.169C451.952 127.4 450.995 126.199 450.038 124.998Z" fill="#1D090A"/>
<path d="M386.472 61.1892C386.472 61.1893 386.186 61.2091 386.082 60.7074C384.569 59.505 383.159 58.8042 381.749 58.1035C381.749 58.1035 381.334 58.0541 381.172 57.5446C381.002 56.0377 380.992 55.0402 380.983 54.0428C384.649 56.7836 388.315 59.5244 391.651 62.4855C389.705 62.2002 388.089 61.6947 386.472 61.1892Z" fill="#1D090A"/>
<path d="M372.385 52.1902C372.385 52.1902 372.203 52.2807 371.949 51.9373C371.29 51.4437 370.886 51.2936 370.482 51.1434C370.482 51.1434 370.203 51.2065 369.939 50.859C369.308 50.3856 368.941 50.2598 368.575 50.134C368.575 50.134 368.249 50.1605 368.124 49.7938C367.988 49.2553 367.977 49.0834 367.966 48.9116C367.759 46.1346 369.111 46.3999 370.877 47.4044C373.804 49.0688 376.741 50.7139 379.651 52.9124C377.692 53.3643 375.755 53.2709 373.818 53.1775C373.818 53.1775 373.889 53.1087 373.751 52.8586C373.204 52.4691 372.794 52.3296 372.385 52.1902Z" fill="#1D090A"/>
<path d="M349.985 41.1385C344.614 39.0665 339.244 36.9944 333.655 34.6376C335.683 34.5866 337.929 34.8202 340.757 35.3694C343.887 36.7908 346.436 37.8966 348.985 39.0024C349.307 39.1006 349.573 39.2822 349.892 40.0521C349.997 40.7509 349.991 40.9447 349.985 41.1385Z" fill="#290A0C"/>
<path d="M450.108 121.719C449.971 122.569 449.948 123.12 449.869 124.085C447.32 121.215 444.827 117.93 442.315 114.315C444.298 115.623 446.299 117.262 448.639 118.953C449.392 119.81 449.807 120.615 450.108 121.719Z" fill="#290A0C"/>
<path d="M452.265 370.961C453.341 368.334 454.818 365.726 456.585 362.934C458.808 368.11 457.772 370.134 452.265 370.961Z" fill="#131313"/>
<path d="M196.001 27.1145C196.536 27.4088 197.071 27.703 197.922 28.0574C193.782 29.4598 189.327 30.8021 184.463 32.1213C184.032 31.9137 184.011 31.7293 184.335 31.2673C185.758 30.3543 186.837 29.7188 187.916 29.0832C188.386 29.0709 188.856 29.0585 189.921 29.0307C190.515 29.0152 191 28.9925 191 28.9925C191.656 28.5318 192.312 28.0711 193.008 27.0692C193.048 26.528 193.078 26.1013 193.078 26.1013C193.5 26.0914 193.922 26.0815 194.659 26.0483C194.975 26.0251 194.995 26.0046 195.088 26.2495C195.454 26.7011 195.727 26.9078 196.001 27.1145Z" fill="#39080C"/>
<path d="M455.079 133.35C455.828 133.248 456.609 133.5 457.675 133.878C458.539 134.167 459.117 134.33 459.745 135.015C460.193 136.359 460.593 137.181 460.992 138.003C460.995 138.444 460.998 138.885 461.005 140.027C461.026 141.71 461.044 142.692 461.062 143.674C459.078 140.351 457.095 137.028 455.079 133.35Z" fill="#290A0C"/>
<path d="M478.712 312.79C478.811 311.018 479.265 309.334 479.923 307.34C481.279 307.556 482.431 308.082 484.029 308.812C482.194 310.254 483.122 314.231 478.712 312.79Z" fill="#121115"/>
<path d="M373.983 53.4667C375.755 53.2708 377.692 53.3642 379.854 53.1836C380.38 53.0697 380.621 53.2922 380.895 53.8099C380.992 55.0402 381.002 56.0377 381.014 57.4085C378.727 56.4399 376.437 55.098 373.983 53.4667Z" fill="#290A0C"/>
<path d="M348.991 38.7514C346.436 37.8966 343.887 36.7908 341.176 35.3911C343.468 35.6429 345.922 36.1887 348.691 37.1259C349.006 37.5173 349.004 37.9985 349.004 37.9985C349.001 38.1658 348.999 38.3331 348.991 38.7514Z" fill="#1D090A"/>
<path d="M388.278 435.769C388.079 431.398 391.63 431.15 395.072 430.48C393.155 432.318 390.88 434.006 388.278 435.769Z" fill="#E5E3EC"/>
<path d="M489.345 232.891C488.658 231.548 488.335 230.149 488.018 228.382C488.632 227.522 489.241 227.031 489.849 226.54C490.248 226.661 490.648 226.781 491.047 226.902C490.601 228.88 490.156 230.858 489.345 232.891Z" fill="#121115"/>
<path d="M364.052 47.499C361.078 46.444 358.105 45.0881 354.931 43.4473C355.871 43.1203 357.013 43.0781 358.738 43.3426C360.865 44.4321 362.411 45.2149 363.957 45.9977C363.99 46.3978 364.022 46.798 364.052 47.499Z" fill="#290A0C"/>
<path d="M364.269 45.9949C362.411 45.2149 360.865 44.432 359.165 43.36C361.385 43.8338 363.759 44.5967 366.134 45.3596C365.616 45.5704 365.099 45.7812 364.269 45.9949Z" fill="#1D090A"/>
<path d="M176.006 34.9629C176.006 34.9629 175.678 35.1585 175.146 35.0804C174.384 34.9602 174.155 34.918 173.926 34.8758C173.576 34.0379 173.225 33.1999 172.413 31.2609C174.584 31.6796 176.23 31.997 177.941 32.9495C178.017 33.7767 178.027 33.9689 178.037 34.161C178.037 34.161 177.794 34.3152 177.352 34.2618C176.609 34.4599 176.307 34.7114 176.006 34.9629Z" fill="#1D090A"/>
<path d="M207.312 26.486C207.442 25.6983 207.941 24.9974 208.683 24.1858C211.15 24.0777 213.376 24.0803 216.002 24.1869C213.495 25.0515 210.588 25.8122 207.312 26.486Z" fill="#39080C"/>
<path d="M147.334 451.659C148.936 451.978 150.404 452.648 152.095 453.588C150.83 454.468 149.343 455.079 146.955 456.06C147.054 454.432 147.127 453.221 147.334 451.659Z" fill="#121115"/>
<path d="M278.091 22.3245C275.312 22.2117 272.533 22.0989 269.386 21.8211C271.717 21.4429 274.416 21.2298 277.576 21.3466C278.055 21.8925 278.073 22.1085 278.091 22.3245Z" fill="#39080C"/>
<path d="M237.705 21.584C235.876 22.1446 233.786 22.4427 231.292 22.6098C233.073 22.093 235.258 21.7073 237.705 21.584Z" fill="#39080C"/>
<path d="M470.505 336.03C470.556 334.732 470.941 333.445 471.591 331.945C472.578 332.911 473.3 334.091 474.022 335.27C472.96 335.527 471.899 335.784 470.505 336.03Z" fill="#161616"/>
<path d="M25.0032 249.326C26.6514 250.469 28.2957 251.924 29.9465 253.727C28.4134 253.208 26.8736 252.339 25.1721 251.176C25.0068 250.466 25.003 250.052 25.0032 249.326Z" fill="#0D070D"/>
<path d="M146.514 46.952C145.201 47.9804 143.506 48.9976 141.456 50.0905C142.777 49.091 144.455 48.0159 146.514 46.952Z" fill="#2B070A"/>
<path d="M188.029 28.8037C186.837 29.7188 185.758 30.3543 184.341 30.9889C183.975 27.8009 185.443 27.1277 188.029 28.8037Z" fill="#1D090A"/>
<path d="M461.037 143.768C461.044 142.692 461.026 141.71 461.013 140.357C462.016 141.066 463.014 142.145 463.998 143.62C463.984 144.016 463.966 144.034 463.613 144.027C462.572 143.987 461.884 143.955 461.196 143.923C461.196 143.923 461.012 143.862 461.037 143.768Z" fill="#1D090A"/>
<path d="M26.5641 292.995C27.1677 293.67 27.4043 294.347 27.6134 295.384C26.4982 296.155 25.4107 296.566 24.0145 297.093C24.0145 295.884 24.0145 294.815 24.0072 293.373C24 293 23.9954 293.005 23.9954 293.005C24.7293 293.002 25.4632 293 26.5641 292.995Z" fill="#121115"/>
<path d="M166.129 38.2803C164.627 39.3771 162.717 40.3223 160.417 40.9803C160.026 40.4889 160.026 40.2847 160.025 40.0806C160.293 39.8843 160.562 39.688 161.279 39.2567C162.485 38.6798 163.242 38.3379 163.998 37.996C164.573 38.0402 165.148 38.0844 166.129 38.2803Z" fill="#39080C"/>
<path d="M397.76 69.1011C397.465 69.1078 397.221 68.9991 396.979 68.1725C396.933 66.7338 396.935 65.8975 396.95 65.05C396.961 65.0387 396.984 65.017 396.984 65.017C397.987 66.0967 398.991 67.1765 400.002 68.623C400.01 68.9897 399.998 69.0028 399.622 69.0068C398.751 69.0409 398.256 69.071 397.76 69.1011Z" fill="#1D090A"/>
<path d="M386.662 61.4787C388.089 61.6947 389.705 62.2001 391.65 62.8525C392.008 63.4214 392.037 63.8433 392.062 64.5823C390.323 63.8556 388.587 62.8119 386.662 61.4787Z" fill="#290A0C"/>
<path d="M312.842 26.6924C311.565 26.692 310.142 26.3833 308.353 26.0275C309.916 21.9371 311.22 25.1626 312.842 26.6924Z" fill="#1D090A"/>
<path d="M462.823 351.961C463.168 351.033 463.512 350.105 464.066 348.962C464.615 349.934 464.954 351.122 465.146 352.655C465 353 464.998 353.001 464.721 352.881C463.904 352.495 463.363 352.228 462.823 351.961Z" fill="#131313"/>
<path d="M228.714 22.5C226.892 23.1057 224.788 23.4799 222.288 23.7432C221.893 23.6322 221.87 23.2594 222.204 23.0871C223.021 22.6292 223.504 22.3436 223.987 22.058C225.469 22.1282 226.95 22.1983 228.714 22.5Z" fill="#39080C"/>
<path d="M159.62 40.0581C160.026 40.2847 160.026 40.4889 160.042 41.0011C160.056 41.3093 159.818 41.3278 159.369 41.3001C158.599 41.5912 158.277 41.91 157.954 42.2288C157.954 42.2289 157.785 42.3183 157.343 42.2725C156.219 42.4512 155.538 42.6758 154.856 42.9004C154.823 39.6853 157.065 39.93 159.62 40.0581Z" fill="#2B070A"/>
<path d="M488.128 278.387C488.774 278.917 489.344 279.777 489.915 280.637C489.397 280.85 488.878 281.062 488.36 281.274C488.258 280.422 488.156 279.57 488.128 278.387Z" fill="#121115"/>
<path d="M350.092 41.2183C349.991 40.9447 349.997 40.7509 350.01 40.2659C350.921 39.4517 351.825 38.9286 352.729 38.4056C352.673 39.1867 352.617 39.9679 351.902 40.9162C350.981 41.1255 350.717 41.1677 350.453 41.2098C350.453 41.2098 350.2 41.298 350.092 41.2183Z" fill="#1D090A"/>
<path d="M286.068 23.2304C284.389 23.0965 282.711 22.9626 280.778 22.6021C282.038 22.2583 283.553 22.1413 285.546 22.3316C286.038 22.8362 286.053 23.0333 286.068 23.2304Z" fill="#39080C"/>
<path d="M22.6759 260.236C23.1873 261.144 23.4582 262.267 23.5865 263.738C23.1077 262.875 22.7715 261.663 22.6759 260.236Z" fill="#121115"/>
<path d="M300.018 25.7587C299.568 25.7361 299.117 25.7134 298.354 25.3178C298.006 24.6586 297.991 24.3714 297.996 24.083C298.965 24.162 299.935 24.2409 300.758 24.729C300.342 25.2757 300.144 25.4825 300.018 25.7587Z" fill="#1D090A"/>
<path d="M458.876 359.789C459.073 358.51 459.688 357.25 460.592 355.788C460.351 356.993 459.823 358.401 458.876 359.789Z" fill="#131313"/>
<path d="M173.539 34.919C174.155 34.918 174.384 34.9602 174.955 35.0793C173.799 35.7968 172.301 36.4373 170.421 36.7605C170.034 35.9991 170.029 35.555 170.025 35.111C171.067 35.0613 172.109 35.0117 173.539 34.919Z" fill="#39080C"/>
<path d="M483.401 242.06C484.111 241.379 485.17 240.68 486.608 239.976C486.986 239.971 487.027 240.444 487.034 240.68C485.944 241.292 484.847 241.667 483.401 242.06Z" fill="#121115"/>
<path d="M470.843 164.427C471.383 164.599 471.932 165.133 472.723 165.833C472.975 166.81 472.983 167.621 472.926 168.835C472.19 167.754 471.52 166.272 470.843 164.427Z" fill="#290A0C"/>
<path d="M331.866 33.7268C330.787 33.7362 329.575 33.4307 328.136 32.9186C329.841 29.3442 330.541 32.7306 331.866 33.7268Z" fill="#290A0C"/>
<path d="M163.964 37.6914C163.242 38.3379 162.485 38.6798 161.398 39.0347C162.021 38.4941 162.975 37.9404 163.964 37.6914Z" fill="#1D090A"/>
<path d="M169.843 34.8591C170.029 35.555 170.034 35.9991 170.068 36.7764C170.098 37.1097 170.077 37.0799 169.732 37.0406C168.915 36.9879 168.444 36.9745 167.973 36.9612C168.535 36.1765 169.098 35.3918 169.843 34.8591Z" fill="#1D090A"/>
<path d="M486.267 205.829C485.848 205.117 485.69 204.229 485.794 203.162C486.213 203.872 486.371 204.763 486.267 205.829Z" fill="#121115"/>
<path d="M223.948 21.7422C223.504 22.3436 223.021 22.6293 222.24 22.9039C222.14 22.1198 222.338 21.3468 222.535 20.5737C222.993 20.858 223.45 21.1422 223.948 21.7422Z" fill="#1D090A"/>
<path d="M297.718 24.0403C297.991 24.3714 298.006 24.6587 298.052 25.1596C297.196 25.2697 296.33 25.1651 295.194 24.8467C295.764 24.4211 296.602 24.2093 297.718 24.0403Z" fill="#39080C"/>
<path d="M21.9871 285.856C22.0506 285.088 22.1161 284.631 22.1816 284.173C22.4064 284.168 22.6312 284.163 22.856 284.158C22.7878 285.12 22.7196 286.083 22.6514 287.045C22.5414 287.034 22.36 287.06 22.3333 287.008C22.1966 286.738 22.0999 286.449 21.9871 285.856Z" fill="#121115"/>
<path d="M461.002 137.664C460.593 137.181 460.193 136.36 459.935 135.253C460.388 135.754 460.7 136.539 461.002 137.664Z" fill="#1D090A"/>
<path d="M153.01 44.1642C152.466 44.8148 151.572 45.3933 150.337 45.7341C149.997 45.4964 149.997 44.9964 149.997 44.9964C150.885 44.695 151.772 44.3936 153.01 44.1642Z" fill="#39080C"/>
<path d="M393.624 66.1523C393.168 65.9078 392.712 65.6633 392.191 65.1606C393.225 64.9263 394.324 64.9501 395.721 65.0008C396.018 65.0277 396.03 65.0457 395.806 65.3038C394.929 65.7587 394.276 65.9555 393.624 66.1523Z" fill="#1D090A"/>
<path d="M21.9601 279.563C21.5755 279.314 21.2379 278.79 20.9003 278.267C21.1343 278.154 21.3683 278.041 21.6023 277.928C21.7373 278.382 21.8723 278.836 21.9601 279.563Z" fill="#121115"/>
<path d="M486.095 277.952C485.845 277.518 485.814 276.994 485.937 276.246C486.166 276.636 486.24 277.249 486.095 277.952Z" fill="#121115"/>
<path d="M154.657 43.0314C155.538 42.6758 156.219 42.4513 157.264 42.2188C156.651 42.8182 155.677 43.4256 154.348 44.0051C154.046 43.6469 154.2 43.3753 154.657 43.0314Z" fill="#39080C"/>
<path d="M247.994 18.3463C247.461 18.6902 246.757 18.8323 246.053 18.9744C246.016 18.757 245.979 18.5396 245.942 18.3221C246.569 18.2629 247.196 18.2037 247.994 18.3463Z" fill="#1D090A"/>
<path d="M462.11 354.147C461.892 353.684 461.914 353.524 462.44 353.693C463.646 353.91 464.326 353.957 465.003 354.003C465 354 464.995 353.996 464.995 353.996C464.106 354.201 463.218 354.405 462.11 354.147Z" fill="#131313"/>
<path d="M215.978 21.7274C215.089 21.8652 214.405 21.8157 213.721 21.7663C213.761 21.5297 213.802 21.2931 213.842 21.0565C214.623 21.2177 215.403 21.379 215.978 21.7274Z" fill="#1D090A"/>
<path d="M292.019 23.9273C291.567 24.1731 291.009 24.212 290.245 24.0363C290.664 23.788 291.289 23.7543 292.019 23.9273Z" fill="#39080C"/>
<path d="M32.4209 322.589C32.3615 323.064 32.1243 323.354 31.8871 323.644C31.7072 323.45 31.5273 323.256 31.3474 323.062C31.646 322.842 31.9446 322.623 32.4209 322.589Z" fill="#121115"/>
<path d="M288.146 20.6925C287.577 20.7268 287.175 20.5988 286.773 20.4708C286.884 20.3633 287.017 20.1486 287.101 20.1665C287.512 20.2537 287.91 20.4029 288.146 20.6925Z" fill="#1D090A"/>
<path d="M22.3048 214.066C22.2734 213.495 22.4038 213.091 22.5342 212.687C22.6429 212.798 22.8603 212.933 22.842 213.016C22.751 213.429 22.5979 213.828 22.3048 214.066Z" fill="#121115"/>
<path d="M20.8981 269.28C20.7943 269.774 20.6476 270.033 20.5009 270.292C20.3547 270.033 20.0367 269.707 20.1053 269.533C20.1943 269.307 20.591 269.202 20.8981 269.28Z" fill="#121115"/>
<path d="M25.3435 300.867C25.6485 301.162 25.7758 301.601 25.8408 302.049C25.852 302.126 25.597 302.241 25.4649 302.339C25.3583 301.897 25.2516 301.456 25.3435 300.867Z" fill="#121115"/>
<path d="M484.857 301.276C485.059 301.607 485.03 301.971 485.002 302.336C484.751 302.26 484.501 302.184 484.25 302.108C484.376 301.842 484.501 301.575 484.857 301.276Z" fill="#121115"/>
<path d="M26.2937 307.164C26.2538 306.565 26.3925 306.139 26.5312 305.712C26.6499 305.827 26.8861 305.968 26.8675 306.053C26.7718 306.489 26.6106 306.91 26.2937 307.164Z" fill="#121115"/>
<path d="M476.248 327.635C476.008 327.62 475.878 327.493 475.748 327.366C475.951 327.418 476.155 327.47 476.248 327.635Z" fill="#161616"/>
<path d="M488.776 217.966C488.596 218.086 488.415 218.028 488.233 217.97C488.413 217.909 488.593 217.848 488.776 217.966Z" fill="#121115"/>
<path d="M20.3887 228.685C20.5625 228.82 20.5896 229.059 20.6167 229.298C20.4918 229.128 20.3669 228.958 20.3887 228.685Z" fill="#121115"/>
<path d="M24.0021 292.998C23.7463 292.638 23.4884 292.28 23.2304 291.921C23.3598 291.83 23.4892 291.738 23.6185 291.647C23.7423 291.933 23.8661 292.219 23.9926 292.755C23.9954 293.005 23.9999 293 24.0021 292.998Z" fill="#121115"/>
<path d="M27.7854 309.983C27.6009 310.108 27.4141 310.048 27.2274 309.988C27.4126 309.925 27.5979 309.862 27.7854 309.983Z" fill="#121115"/>
<path d="M28.6123 313.298C28.4396 313.163 28.4133 312.925 28.387 312.687C28.5109 312.857 28.6348 313.026 28.6123 313.298Z" fill="#121115"/>
<path d="M295.328 21.3821C295.187 21.5645 294.937 21.5939 294.687 21.6232C294.864 21.4918 295.041 21.3604 295.328 21.3821Z" fill="#1D090A"/>
<path d="M326.799 31.9192C326.314 32.1069 325.645 31.9668 324.726 31.5849C325.189 31.4259 325.901 31.5087 326.799 31.9192Z" fill="#290A0C"/>
<path d="M167.961 37.2037C168.444 36.9745 168.915 36.9879 169.738 37.0408C169.589 37.3912 169.088 37.7022 168.282 37.9722C167.976 37.9313 167.948 37.4463 167.961 37.2037Z" fill="#39080C"/>
<path d="M27.3788 188.645C27.5655 188.788 27.5967 189.045 27.6278 189.303C27.493 189.122 27.3581 188.941 27.3788 188.645Z" fill="#2B070A"/>
<path d="M178.362 34.1669C178.027 33.9689 178.017 33.7767 178.004 33.2961C178.527 33.0232 179.055 33.0388 179.967 33.1568C179.796 33.5638 179.242 33.8683 178.362 34.1669Z" fill="#39080C"/>
<path d="M30.3365 320.304C30.3517 320.008 30.5066 319.846 30.6615 319.685C30.5997 319.936 30.5379 320.186 30.3365 320.304Z" fill="#121115"/>
<path d="M286.367 23.3078C286.053 23.0333 286.038 22.8362 285.998 22.3442C286.549 22.2682 287.126 22.4871 287.798 23.0145C287.485 23.3437 287.076 23.3644 286.367 23.3078Z" fill="#1D090A"/>
<path d="M300.334 25.8878C300.144 25.4826 300.342 25.2758 300.814 25.0533C301.333 25.081 301.592 25.2712 301.897 25.7609C301.549 25.9941 301.099 26.0055 300.334 25.8878Z" fill="#39080C"/>
<path d="M190.911 28.8271C191 28.9925 190.515 29.0152 190.273 29.0203C190.295 28.9041 190.558 28.7829 190.911 28.8271Z" fill="#1D090A"/>
<path d="M485.55 297.567C485.474 297.619 485.449 297.414 485.449 297.414C485.449 297.414 485.626 297.516 485.55 297.567Z" fill="#121115"/>
<path d="M454.54 372.559C454.475 372.6 454.604 372.519 454.54 372.559V372.559Z" fill="#131313"/>
<path d="M465.001 352.999C465.187 353.166 465.385 353.321 465.542 353.511C465.569 353.542 465.419 353.72 465.173 353.913C464.995 353.996 465 354 464.995 353.752C464.992 353.336 464.995 353.169 464.998 353.001C464.998 353.001 465 353 465.001 352.999Z" fill="#131313"/>
<path d="M467.544 349.564C467.475 349.608 467.613 349.519 467.544 349.564V349.564Z" fill="#131313"/>
<path d="M483.545 306.56C483.474 306.607 483.454 306.417 483.454 306.417C483.454 306.417 483.616 306.514 483.545 306.56Z" fill="#121115"/>
<path d="M33.0034 325.997C32.8815 325.849 32.7561 325.704 32.6307 325.559C32.7178 325.612 32.8049 325.664 32.9433 325.862C32.9947 326.007 33 326 33.0034 325.997Z" fill="#121115"/>
<path d="M251.003 17.9974C250.884 17.8576 250.761 17.7204 250.639 17.5833C250.722 17.6329 250.805 17.6825 250.942 17.8694C250.995 18.0067 251 18 251.003 17.9974Z" fill="#1D090A"/>
<path d="M424.983 88.6756C424.822 88.716 424.537 88.5554 424.186 88.1493C424.414 88.0327 424.661 88.223 424.983 88.6756Z" fill="#290A0C"/>
<path d="M421.985 85.704C421.819 85.7397 421.53 85.5618 421.172 85.13C421.405 85.02 421.658 85.2247 421.985 85.704Z" fill="#290A0C"/>
<path d="M317.983 26.9708C318.095 26.9314 318.223 26.916 318.199 26.9652C318.046 27.0298 318 26.9948 317.983 26.9708Z" fill="#1D090A"/>
<path d="M396.013 65.0192C396.278 64.8982 396.549 64.7856 396.902 64.845C396.984 65.017 396.961 65.0387 396.723 65.0374C396.485 65.0361 396.03 65.0457 396.03 65.0457C396.03 65.0457 396.018 65.0277 396.013 65.0192Z" fill="#1D090A"/>
<path d="M427.992 91.6739C427.825 91.7133 427.538 91.5469 427.191 91.1284C427.426 91.0145 427.672 91.2117 427.992 91.6739Z" fill="#290A0C"/>
<path d="M367.672 48.9474C367.977 49.0834 367.988 49.2553 368.002 49.6851C367.683 49.8263 367.362 49.7095 366.922 49.3551C366.996 49.0727 367.187 49.028 367.672 48.9474Z" fill="#290A0C"/>
<path d="M149.774 45.1008C149.997 44.9964 149.997 45.4964 149.999 45.7463C149.834 46.0658 149.668 46.1353 149.251 46.1024C149.084 45.6657 149.268 45.4008 149.774 45.1008Z" fill="#2B070A"/>
<path d="M353.85 42.6278C353.657 42.7806 353.314 42.7071 352.822 42.4036C353.015 42.2495 353.358 42.3255 353.85 42.6278Z" fill="#290A0C"/>
<path d="M350.653 41.4434C350.717 41.1677 350.981 41.1256 351.644 41.0478C352.044 41.0122 352.047 41.4756 352.032 41.7067C351.629 41.8509 351.241 41.764 350.653 41.4434Z" fill="#290A0C"/>
<path d="M349.181 37.9186C349.004 37.9985 349.006 37.5173 349.01 37.2771C349.198 37.1968 349.394 37.3466 349.554 37.5277C349.576 37.5535 349.427 37.7313 349.181 37.9186Z" fill="#290A0C"/>
<path d="M331.567 30.4512C331.617 30.5266 331.415 30.551 331.415 30.551C331.415 30.551 331.516 30.3758 331.567 30.4512Z" fill="#1D090A"/>
<path d="M278.322 22.358C278.073 22.1084 278.055 21.8924 278.01 21.3527C278.266 21.2475 278.548 21.4659 278.907 21.9487C278.983 22.213 278.552 22.3915 278.322 22.358Z" fill="#1D090A"/>
<path d="M305.446 23.4332C305.518 23.3866 305.542 23.5752 305.542 23.5752C305.542 23.5752 305.374 23.4798 305.446 23.4332Z" fill="#1D090A"/>
<path d="M314.422 25.5517C314.37 25.4758 314.576 25.4498 314.576 25.4498C314.576 25.4498 314.475 25.6275 314.422 25.5517Z" fill="#1D090A"/>
<path d="M192.892 26.1477C193.078 26.1013 193.048 26.528 193.042 26.7413C192.851 26.8019 192.66 26.6554 192.493 26.4852C192.479 26.4714 192.632 26.2949 192.892 26.1477Z" fill="#1D090A"/>
<path d="M435.935 100.741C435.715 100.89 435.442 100.721 435.127 100.226C435.346 100.088 435.611 100.263 435.935 100.741Z" fill="#290A0C"/>
<path d="M329.514 66.2657C343.091 61.8249 355.855 64.7922 367.739 70.1655C408.456 88.5761 433.148 120.796 445.08 163.203C446.649 168.78 446.359 175.154 445.711 181.024C444.37 193.171 435.232 201.154 422.755 202.047C410.633 202.914 399.487 199.243 389.542 192.995C352.411 169.668 328.207 136.963 319.822 93.4734C318.814 88.2441 319.511 82.5153 320.324 77.1554C321.079 72.1734 324.378 68.491 329.514 66.2657Z" fill="#FEF9FD"/>
<path d="M434.558 264.282C432.772 265.768 431.209 268.034 429.166 268.619C408.434 274.546 387.777 280.863 366.787 285.72C349.534 289.713 331.866 291.925 314.363 294.81C311.757 295.24 309.036 295.183 306.391 295.004C305.751 294.961 305.203 293.54 305.087 292.409C306.728 292.095 307.895 292.124 309.484 292.12C311.602 292.034 313.299 291.981 315.213 291.854C315.701 291.619 315.919 291.406 316.523 291.119C321.668 290.283 326.376 289.47 331.083 288.657C332.13 288.463 333.176 288.268 334.895 288.365C341.554 287.764 347.566 287.011 353.512 285.906C355.771 285.486 357.879 284.252 360.056 283.39C360.488 283.27 360.921 283.149 361.956 283.323C366.866 282.769 371.222 282.113 375.472 281.038C390.141 277.329 404.807 273.596 419.391 269.572C422.448 268.728 425.151 266.605 428.018 265.071C428.018 265.071 428.035 265.004 428.393 265.041C429.504 264.727 430.257 264.375 431.009 264.023C431.009 264.023 431.303 263.823 431.962 263.902C433.267 264.082 433.912 264.182 434.558 264.282Z" fill="#0C070C"/>
<path d="M30.0991 254.347C34.3862 255.975 38.8167 257.944 43.2863 259.821C56.8085 265.499 70.0811 271.936 83.9581 276.553C95.7878 280.489 108.293 282.441 120.551 285.027C127.453 286.483 134.458 287.447 141.69 288.361C142.417 288.086 142.87 288.084 143.696 288.506C147.882 291.455 149.727 290.542 152.332 285.004C152.873 285.009 153.09 285.012 153.306 285.014C153.239 286.343 153.106 287.673 153.117 289.001C153.145 292.369 151.379 293.435 148.303 292.826C133.516 289.896 118.648 287.312 103.964 283.929C81.0603 278.653 59.0345 270.797 38.2882 259.61C35.5238 258.119 32.9321 256.309 30.0991 254.347Z" fill="#0D070D"/>
<path d="M438.517 212.383C442.753 217.969 442.648 222.93 438.527 225.538C434.406 228.146 428.893 226.394 426.351 221.645C424.595 218.364 424.814 215.153 427.413 212.509C430.782 209.081 434.539 209.817 438.517 212.383Z" fill="#F9EBF0"/>
<path d="M268.918 237.108C259.146 232.516 249.399 228.153 238.443 226.689C224.327 224.803 211.004 226.865 198.035 232.356C196.367 233.062 194.615 233.57 192.608 233.809C195.518 231.228 198.723 229.008 201.927 226.788C202.438 226.547 202.949 226.307 204.022 226.355C206.212 226.657 207.957 227.068 209.448 226.623C229 220.798 247.536 224.079 265.414 232.849C266.917 233.586 267.765 235.657 268.918 237.108Z" fill="#0C080E"/>
<path d="M152.007 285.002C149.727 290.542 147.882 291.455 144.018 288.622C148.261 289.053 149.642 287.167 150.581 282.92C155.128 262.363 166.746 246.571 184.636 235.397C182.646 238.492 180.341 241.279 178.035 244.066C178.035 244.066 177.995 244.013 177.647 244.009C175.862 245.67 174.424 247.333 172.987 248.997C172.987 248.997 172.999 248.999 172.666 249.037C171.89 249.756 171.448 250.437 171.006 251.117C170.574 251.671 170.141 252.226 169.1 252.916C166.683 255.721 164.876 258.391 163.068 261.061C163.068 261.061 162.998 261.029 162.755 261.206C162.369 262.018 162.227 262.654 162.084 263.289C161.93 263.769 161.775 264.25 161.034 264.897C154.623 270.435 153.716 277.888 152.007 285.002Z" fill="#2B070A"/>
<path d="M268.933 237.095C267.765 235.657 266.917 233.586 265.414 232.849C247.536 224.079 229 220.798 209.448 226.623C207.957 227.068 206.212 226.657 204.312 226.379C226.663 218.629 248.242 221.577 268.882 232.846C272.496 234.819 275.682 237.575 279.123 240.381C279.18 240.793 278.942 241.058 278.592 240.997C275.139 239.64 272.037 238.345 268.934 237.049C268.934 237.049 268.948 237.082 268.933 237.095Z" fill="#2B070A"/>
<path d="M309.063 292.153C307.895 292.124 306.728 292.095 305.231 292.067C304.901 292.068 304.941 292.023 304.851 291.801C304.465 291.39 304.169 291.2 303.874 291.01C303.895 289.584 303.916 288.158 303.964 285.965C303.937 275.874 298.826 268.391 294.865 260.513C294.47 259.728 292.931 259.519 291.923 259.043C291.923 259.043 291.98 258.994 291.984 258.659C290.673 256.541 289.358 254.759 287.918 252.757C287.505 252.372 287.217 252.208 286.929 252.043C286.929 252.043 286.962 251.991 286.869 251.784C286.499 251.396 286.221 251.214 285.944 251.032C285.944 251.032 286.003 251.042 285.967 250.704C284.933 249.588 283.935 248.811 282.938 248.033C282.938 248.033 282.983 247.995 282.868 247.773C282.434 247.374 282.117 247.197 281.8 247.021C281.532 246.939 281.314 246.785 281.051 246.015C280.284 243.999 279.613 242.529 278.942 241.058C278.942 241.058 279.18 240.793 279.3 240.659C294.454 252.269 303.185 267.778 306.85 286.338C307.161 287.914 307.827 289.421 308.669 291.375C309.009 291.791 309.063 292.153 309.063 292.153Z" fill="#2B070A"/>
<path d="M427.63 265.048C425.151 266.605 422.448 268.728 419.391 269.572C404.807 273.596 390.141 277.329 375.472 281.038C371.222 282.113 366.866 282.769 362.294 283.347C371.846 280.658 381.727 278.475 391.46 275.759C403.452 272.413 415.32 268.623 427.63 265.048Z" fill="#39050A"/>
<path d="M474.528 247.284C469.894 250.048 465.432 253.169 460.586 255.488C453.906 258.685 446.936 261.277 439.269 264.085C437.284 264.06 436.12 264.078 434.956 264.096C434.956 264.096 434.86 264.266 435.021 263.957C436.781 262.658 438.381 261.668 439.981 260.678C439.981 260.678 440.19 260.571 440.626 260.645C441.375 260.43 441.688 260.141 442.001 259.852C442.001 259.852 442.206 259.679 442.747 259.79C444.524 259.592 445.759 259.285 447.369 258.975C451.836 256.555 455.929 254.137 460.022 251.718C460.022 251.718 460.175 251.631 460.68 251.744C463.091 251.127 464.975 250.336 466.906 249.681C469.428 248.826 471.986 248.078 474.528 247.284Z" fill="#17070C"/>
<path d="M359.657 283.323C357.879 284.252 355.771 285.486 353.512 285.906C347.566 287.011 341.554 287.764 335.298 288.395C343.104 286.508 351.181 284.882 359.657 283.323Z" fill="#39050A"/>
<path d="M201.537 226.79C198.723 229.008 195.518 231.228 192.221 233.788C192.128 234.127 192.083 234.103 191.654 234.065C189.319 234.257 187.414 234.487 185.509 234.717C190.722 232.075 195.934 229.434 201.537 226.79Z" fill="#2B070A"/>
<path d="M474.626 247.276C471.986 248.078 469.428 248.826 466.906 249.681C464.975 250.336 463.091 251.127 460.763 251.774C465.333 248.834 470.324 245.977 475.667 243.447C475.642 244.902 475.267 246.03 474.891 247.159C474.891 247.159 474.725 247.267 474.626 247.276Z" fill="#290A0C"/>
<path d="M185.357 234.744C187.414 234.487 189.319 234.257 191.634 234.049C187.601 237.364 183.16 240.657 178.377 244.008C180.341 241.279 182.646 238.492 184.982 235.359C185.011 235.013 185.204 234.771 185.357 234.744Z" fill="#0C080E"/>
<path d="M459.639 251.755C455.929 254.137 451.836 256.555 447.352 258.672C446.938 258.17 446.915 257.968 446.892 257.767C451.013 255.775 455.134 253.783 459.639 251.755Z" fill="#290A0C"/>
<path d="M309.484 292.12C309.063 292.153 309.009 291.791 309 291.609C316.091 290.42 323.192 289.413 330.688 288.532C326.376 289.47 321.668 290.283 316.291 291.169C315.325 291.391 315.116 291.62 314.995 291.929C313.299 291.981 311.602 292.034 309.484 292.12Z" fill="#39050A"/>
<path d="M475.275 247.134C475.267 246.03 475.642 244.902 476.023 243.415C476.027 243.058 476.246 242.819 476.405 242.799C478.458 242.524 480.352 242.268 482.659 242.035C480.601 243.742 478.129 245.426 475.275 247.134Z" fill="#121115"/>
<path d="M397.906 69.4043C398.256 69.071 398.751 69.0409 399.618 69.0129C402.267 71.2082 404.544 73.4013 406.756 75.9551C403.811 74.113 400.931 71.9103 397.906 69.4043Z" fill="#290A0C"/>
<path d="M461.224 144.276C461.884 143.955 462.572 143.987 463.603 144.036C464.594 146.622 465.241 149.191 465.826 152.188C464.261 149.954 462.757 147.292 461.224 144.276Z" fill="#290A0C"/>
<path d="M421.843 90.534C422.873 90.153 423.992 90.0867 425.528 90.038C425.941 91.2135 425.938 92.3712 425.89 93.9657C424.541 93.2178 423.236 92.0332 421.843 90.534Z" fill="#290A0C"/>
<path d="M439.591 260.702C438.381 261.668 436.781 262.658 434.925 263.936C434.67 264.224 434.614 264.26 434.586 264.271C433.912 264.182 433.267 264.082 432.14 263.896C434.172 262.782 436.686 261.754 439.591 260.702Z" fill="#39050A"/>
<path d="M381.942 58.3727C383.159 58.8042 384.569 59.5049 385.99 60.5976C384.712 60.207 383.424 59.4245 381.942 58.3727Z" fill="#290A0C"/>
<path d="M418.795 87.4346C419.737 87.9029 420.823 88.6671 421.846 89.8396C420.834 89.4088 419.887 88.5696 418.795 87.4346Z" fill="#290A0C"/>
<path d="M450.074 125.332C450.995 126.199 451.952 127.4 452.886 128.977C451.946 128.123 451.028 126.894 450.074 125.332Z" fill="#290A0C"/>
<path d="M446.533 257.793C446.915 257.968 446.938 258.17 446.978 258.674C445.759 259.285 444.524 259.592 442.877 259.82C443.702 259.099 444.938 258.459 446.533 257.793Z" fill="#39050A"/>
<path d="M395.806 65.3038C396.03 65.0457 396.485 65.0361 396.711 65.0487C396.935 65.8975 396.933 66.7338 396.886 67.9895C395.881 67.8523 394.921 67.2957 393.792 66.4457C394.276 65.9555 394.929 65.7587 395.806 65.3038Z" fill="#290A0C"/>
<path d="M468.774 159.452C469.501 160.524 470.231 161.954 470.924 163.756C470.183 162.689 469.48 161.249 468.774 159.452Z" fill="#290A0C"/>
<path d="M203.218 27.332C203.536 26.957 204.105 26.7047 204.808 26.6412C204.45 27.0382 203.96 27.2465 203.218 27.332Z" fill="#39080C"/>
<path d="M408.837 78.4022C409.44 78.5264 410.169 78.9379 410.941 79.696C410.311 79.5916 409.637 79.1405 408.837 78.4022Z" fill="#290A0C"/>
<path d="M453.243 130.3C453.78 130.578 454.337 131.164 454.864 132.098C454.31 131.833 453.786 131.221 453.243 130.3Z" fill="#290A0C"/>
<path d="M430.684 263.99C430.257 264.375 429.504 264.727 428.42 265.064C428.845 264.684 429.601 264.32 430.684 263.99Z" fill="#39050A"/>
<path d="M430.179 99.2533C430.699 99.5071 431.304 100.046 431.899 100.927C431.348 100.692 430.806 100.115 430.179 99.2533Z" fill="#290A0C"/>
<path d="M467.768 157.284C468.143 157.466 468.519 157.978 468.863 158.829C468.477 158.65 468.123 158.132 467.768 157.284Z" fill="#290A0C"/>
<path d="M199.336 28.0139C199.529 27.7485 200.059 27.5306 200.765 27.4838C200.519 27.7903 200.095 27.9259 199.336 28.0139Z" fill="#39080C"/>
<path d="M427.795 96.4291C428.157 96.5243 428.56 96.9096 429.001 97.5939C428.637 97.5016 428.236 97.1104 427.795 96.4291Z" fill="#290A0C"/>
<path d="M416.841 85.3708C417.18 85.4485 417.561 85.7956 417.98 86.4139C417.639 86.3368 417.261 85.9886 416.841 85.3708Z" fill="#290A0C"/>
<path d="M368.748 50.3716C368.941 50.2598 369.308 50.3856 369.838 50.7582C369.641 50.873 369.282 50.7411 368.748 50.3716Z" fill="#290A0C"/>
<path d="M415.723 84.3917C415.939 84.2927 416.306 84.4509 416.793 84.893C416.568 85.0009 416.221 84.8249 415.723 84.3917Z" fill="#290A0C"/>
<path d="M406.811 76.4857C407.07 76.4066 407.408 76.616 407.807 77.134C407.542 77.2199 407.217 76.9971 406.811 76.4857Z" fill="#290A0C"/>
<path d="M372.555 52.4674C372.795 52.3296 373.204 52.4691 373.761 52.9069C373.515 53.0517 373.12 52.8982 372.555 52.4674Z" fill="#290A0C"/>
<path d="M370.671 51.4077C370.886 51.2936 371.29 51.4437 371.867 51.8765C371.647 51.9967 371.254 51.8343 370.671 51.4077Z" fill="#290A0C"/>
<path d="M158.294 42.1679C158.277 41.9101 158.599 41.5912 159.27 41.2341C159.29 41.4996 158.962 41.8033 158.294 42.1679Z" fill="#39080C"/>
<path d="M176.304 34.9502C176.307 34.7115 176.609 34.46 177.218 34.2093C177.219 34.4525 176.911 34.695 176.304 34.9502Z" fill="#39080C"/>
<path d="M441.684 259.882C441.688 260.141 441.375 260.43 440.726 260.705C440.717 260.431 441.042 260.172 441.684 259.882Z" fill="#39050A"/>
<path d="M466.875 155.375C467.123 155.348 467.441 155.638 467.802 156.263C467.545 156.296 467.245 155.994 466.875 155.375Z" fill="#290A0C"/>
<path d="M440.889 112.347C441.115 112.301 441.435 112.537 441.82 113.076C441.584 113.129 441.284 112.879 440.889 112.347Z" fill="#290A0C"/>
<path d="M439.246 110.263C439.496 110.147 439.708 110.334 439.923 110.801C439.661 110.962 439.422 110.79 439.246 110.263Z" fill="#290A0C"/>
<path d="M437.814 108.376C438.039 108.326 438.388 108.556 438.808 109.106C438.565 109.169 438.252 108.913 437.814 108.376Z" fill="#290A0C"/>
<path d="M426.744 95.3901C426.968 95.2947 427.322 95.4639 427.776 95.9211C427.542 96.0243 427.208 95.8395 426.744 95.3901Z" fill="#290A0C"/>
<path d="M66.9839 345.649C65.6847 344.242 64.3477 342.491 63.0056 340.369C64.3158 341.767 65.6309 343.536 66.9839 345.649Z" fill="#E9E7F4"/>
<path d="M61.9749 338.662C60.8345 337.469 59.659 335.94 58.7447 334.203C59.9838 335.439 60.9618 336.882 61.9749 338.662Z" fill="#E9E7F4"/>
<path d="M71.8679 350.719C71.0042 350.247 70.0102 349.494 69.0085 348.37C69.9132 348.812 70.8254 349.625 71.8679 350.719Z" fill="#E9E7F4"/>
<path d="M464.721 352.881C464.995 353.169 464.992 353.336 464.997 353.754C464.326 353.957 463.646 353.909 462.481 353.677C462.108 353.105 462.219 352.717 462.576 352.146C463.363 352.228 463.904 352.495 464.721 352.881Z" fill="black"/>
<path d="M179.626 280.741C192.978 244.941 236.19 234.473 263.959 259.814C287.68 281.46 284.804 320.372 260.944 338.834C241.526 353.858 216.283 353.102 199.09 341.111C179.376 327.361 172.295 304.4 179.626 280.741ZM269.09 272.494C257.959 255.082 238.161 246.748 218.181 251.064C194.867 256.101 178.991 277.746 180.832 301.985C182.631 325.664 201.937 344.999 225.436 346.053C244.239 346.896 259.297 339.488 269.192 323.295C279.266 306.811 279.141 289.895 269.09 272.494Z" fill="#131217"/>
<path d="M291.982 259.394C292.931 259.519 294.47 259.728 294.865 260.513C298.826 268.391 303.937 275.874 303.98 285.633C303.383 285.553 302.526 285.154 302.255 284.508C298.802 276.274 295.432 268.005 291.982 259.394Z" fill="#0D090F"/>
<path d="M152.332 285.004C153.716 277.888 154.623 270.435 160.829 265.052C158.679 271.494 156.147 277.948 153.46 284.708C153.09 285.012 152.873 285.009 152.332 285.004Z" fill="#0B070C"/>
<path d="M278.592 240.997C279.613 242.529 280.284 243.999 280.963 245.833C277.07 243.343 273.169 240.488 269.102 237.342C272.037 238.345 275.139 239.64 278.592 240.997Z" fill="#0C080E"/>
<path d="M163.384 260.942C164.876 258.391 166.683 255.721 168.868 253.048C167.397 255.638 165.549 258.23 163.384 260.942Z" fill="#0C080E"/>
<path d="M288.043 252.977C289.358 254.759 290.673 256.541 291.972 258.694C290.41 257.241 288.864 255.417 287.431 253.293C287.709 252.988 287.876 252.983 288.043 252.977Z" fill="#0D090F"/>
<path d="M173.274 248.846C174.424 247.333 175.862 245.67 177.678 244.021C176.559 245.589 175.06 247.142 173.274 248.846Z" fill="#0C080E"/>
<path d="M283.005 248.358C283.935 248.811 284.933 249.588 285.939 250.716C284.989 250.272 284.03 249.478 283.005 248.358Z" fill="#0C080E"/>
<path d="M435.106 264.434C436.12 264.078 437.284 264.06 438.893 264.077C437.976 264.332 436.616 264.552 435.106 264.434Z" fill="#0C070C"/>
<path d="M171.259 250.959C171.448 250.437 171.89 249.756 172.664 249.031C172.501 249.591 172.007 250.196 171.259 250.959Z" fill="#0C080E"/>
<path d="M162.327 263.072C162.227 262.654 162.369 262.019 162.793 261.207C162.907 261.639 162.738 262.247 162.327 263.072Z" fill="#0C080E"/>
<path d="M303.978 291.259C304.169 291.2 304.465 291.39 304.869 291.824C304.679 291.881 304.381 291.694 303.978 291.259Z" fill="#0C070C"/>
<path d="M287.918 252.757C287.876 252.983 287.709 252.988 287.292 252.996C287.041 252.999 286.897 252.532 286.913 252.288C287.217 252.208 287.505 252.372 287.918 252.757Z" fill="#0C080E"/>
<path d="M286.017 251.285C286.221 251.214 286.499 251.396 286.869 251.815C286.671 251.881 286.38 251.709 286.017 251.285Z" fill="#0C080E"/>
<path d="M281.943 247.251C282.117 247.197 282.434 247.374 282.869 247.802C282.686 247.863 282.386 247.673 281.943 247.251Z" fill="#0C080E"/>
<path d="M55.8412 364.985C52.7859 360.463 50.0749 355.738 47.3011 350.646C53.3376 352.971 57.5326 359.771 55.8412 364.985Z" fill="#E9E7F4"/>
<path d="M45.0697 344.951C43.6029 342.763 42.4577 340.431 41.2689 337.735C45.5803 338.028 47.2871 341.074 45.0697 344.951Z" fill="#E9E7F4"/>
<path d="M47.218 349.169C46.5093 348.702 46.169 348.139 45.8307 347.319C46.7026 347.484 49.7467 346.009 47.218 349.169Z" fill="#E9E7F4"/>
<path d="M482.438 192.537C482.402 192.476 482.474 192.599 482.438 192.537V192.537Z" fill="black"/>
<path d="M117 63.0001C117.122 63.1451 117.245 63.2899 117.368 63.4347C117.279 63.3851 117.19 63.3355 117.051 63.1428C117 62.9997 117 63 117 63.0001Z" fill="black"/>
<path d="M195.905 26.8714C195.727 26.9078 195.454 26.7011 195.083 26.255C195.26 26.2198 195.535 26.424 195.905 26.8714Z" fill="black"/>
<path d="M315.213 291.854C315.116 291.62 315.325 291.391 315.854 291.192C315.919 291.406 315.701 291.619 315.213 291.854Z" fill="#2B070A"/>
<path d="M269.289 272.801C279.141 289.895 279.266 306.811 269.192 323.295C259.297 339.488 244.239 346.896 225.436 346.053C201.937 344.999 182.631 325.664 180.832 301.985C178.991 277.746 194.867 256.101 218.181 251.064C238.161 246.748 257.959 255.082 269.289 272.801ZM198.737 307.596C204.819 324.805 222.994 332.467 239.806 324.908C254.894 318.124 260.968 299.345 252.81 284.706C245.827 272.176 229.625 266.525 215.943 271.847C201.746 277.369 194.821 291.23 198.737 307.596Z" fill="#F9F9F9"/>
<path d="M198.598 307.217C194.821 291.23 201.746 277.369 215.943 271.847C229.625 266.525 245.827 272.177 252.81 284.706C260.968 299.345 254.893 318.124 239.806 324.908C222.994 332.467 204.819 324.805 198.598 307.217ZM233.549 274.421C231.909 274.159 230.277 273.783 228.626 273.653C211.714 272.329 197.351 288.519 201.505 304.188C204.836 316.751 215.816 324.849 228.496 324.094C240.933 323.353 251.136 313.877 252.758 301.559C254.28 289.994 246.792 279.067 233.549 274.421Z" fill="#1E1E1E"/>
<path d="M233.945 274.554C246.792 279.067 254.28 289.994 252.758 301.559C251.136 313.877 240.933 323.353 228.496 324.094C215.816 324.849 204.836 316.751 201.505 304.188C197.351 288.519 211.714 272.329 228.626 273.653C230.277 273.782 231.909 274.159 233.945 274.554Z" fill="#FBFBFB"/>
</g>
<defs>
<clipPath id="clip0_1_2">
<rect width="506" height="493" fill="white"/>
</clipPath>
</defs>
</svg>
